<?xml version="1.0" encoding="UTF-8" standalone="no"?>
<!DOCTYPE svg PUBLIC "-//W3C//DTD SVG 1.1//EN" "http://www.w3.org/Graphics/SVG/1.1/DTD/svg11.dtd">
<svg width="100%" height="100%" viewBox="0 0 2145 256" version="1.1" xmlns="http://www.w3.org/2000/svg" xmlns:xlink="http://www.w3.org/1999/xlink" xml:space="preserve" xmlns:serif="http://www.serif.com/" style="fill-rule:evenodd;clip-rule:evenodd;stroke-linejoin:round;stroke-miterlimit:2;">
    <g id="Artboard1" transform="matrix(6.40399,0,0,1.14345,-2467.08,-435.369)">
        <rect x="385.24" y="380.75" width="334.947" height="223.869" style="fill:none;"/>
        <g transform="matrix(0.156153,0,0,0.874546,385.611,141.231)">
            <g transform="matrix(150,0,0,150,275.139,457.378)">
                <path d="M0.114,-0L0.114,-0.7L0.188,-0.7L0.188,-0.064L0.58,-0.064L0.58,-0L0.114,-0Z" style="fill:rgb(235,235,235);fill-rule:nonzero;"/>
            </g>
            <g transform="matrix(150,0,0,150,372.049,457.378)">
                <path d="M0.396,0.006C0.306,0.006 0.236,-0.019 0.185,-0.071C0.134,-0.123 0.108,-0.199 0.108,-0.299L0.108,-0.7L0.182,-0.7L0.182,-0.302C0.182,-0.219 0.2,-0.158 0.238,-0.119C0.275,-0.079 0.328,-0.06 0.396,-0.06C0.465,-0.06 0.518,-0.079 0.555,-0.119C0.593,-0.158 0.611,-0.219 0.611,-0.302L0.611,-0.7L0.683,-0.7L0.683,-0.299C0.683,-0.199 0.658,-0.123 0.607,-0.071C0.556,-0.019 0.485,0.006 0.396,0.006Z" style="fill:rgb(235,235,235);fill-rule:nonzero;"/>
            </g>
            <g transform="matrix(150,0,0,150,501.309,457.378)">
                <path d="M0.114,-0L0.114,-0.7L0.175,-0.7L0.658,-0.092L0.626,-0.092L0.626,-0.7L0.699,-0.7L0.699,-0L0.638,-0L0.156,-0.608L0.188,-0.608L0.188,-0L0.114,-0Z" style="fill:rgb(235,235,235);fill-rule:nonzero;"/>
            </g>
            <g transform="matrix(150,0,0,150,633.784,457.378)">
                <path d="M0.002,-0L0.322,-0.7L0.395,-0.7L0.715,-0L0.637,-0L0.343,-0.657L0.373,-0.657L0.079,-0L0.002,-0ZM0.128,-0.187L0.15,-0.247L0.557,-0.247L0.58,-0.187L0.128,-0.187Z" style="fill:rgb(235,235,235);fill-rule:nonzero;"/>
            </g>
            <g transform="matrix(150,0,0,150,751.904,457.378)">
                <path d="M0.114,-0L0.114,-0.7L0.376,-0.7C0.435,-0.7 0.486,-0.69 0.529,-0.671C0.572,-0.652 0.605,-0.625 0.628,-0.589C0.651,-0.553 0.662,-0.511 0.662,-0.46C0.662,-0.411 0.651,-0.368 0.628,-0.333C0.605,-0.297 0.572,-0.27 0.529,-0.251C0.486,-0.231 0.435,-0.222 0.376,-0.222L0.155,-0.222L0.188,-0.256L0.188,-0L0.114,-0ZM0.592,-0L0.412,-0.254L0.492,-0.254L0.673,-0L0.592,-0ZM0.188,-0.25L0.155,-0.285L0.374,-0.285C0.444,-0.285 0.497,-0.3 0.534,-0.331C0.57,-0.362 0.588,-0.405 0.588,-0.46C0.588,-0.516 0.57,-0.56 0.534,-0.59C0.497,-0.62 0.444,-0.636 0.374,-0.636L0.155,-0.636L0.188,-0.671L0.188,-0.25Z" style="fill:rgb(235,235,235);fill-rule:nonzero;"/>
            </g>
            <g transform="matrix(150,0,0,150,870.909,457.378)">
                <path d="M0.228,-0L0.228,-0.568L0.004,-0.568L0.004,-0.7L0.614,-0.7L0.614,-0.568L0.39,-0.568L0.39,-0L0.228,-0Z" style="fill:rgb(235,235,235);fill-rule:nonzero;"/>
            </g>
            <g transform="matrix(150,0,0,150,974.078,457.378)">
                <rect x="0.083" y="-0.7" width="0.162" height="0.7" style="fill:rgb(235,235,235);fill-rule:nonzero;"/>
            </g>
            <g transform="matrix(150,0,0,150,1033.82,457.378)">
                <path d="M0.418,0.012C0.364,0.012 0.314,0.003 0.267,-0.015C0.221,-0.032 0.181,-0.057 0.147,-0.09C0.113,-0.122 0.087,-0.161 0.068,-0.205C0.049,-0.249 0.039,-0.297 0.039,-0.35C0.039,-0.403 0.049,-0.451 0.068,-0.495C0.087,-0.539 0.113,-0.578 0.147,-0.61C0.182,-0.643 0.222,-0.668 0.268,-0.685C0.314,-0.703 0.365,-0.712 0.419,-0.712C0.48,-0.712 0.535,-0.701 0.584,-0.68C0.633,-0.659 0.674,-0.629 0.707,-0.588L0.603,-0.492C0.579,-0.519 0.553,-0.54 0.523,-0.554C0.494,-0.568 0.462,-0.574 0.427,-0.574C0.394,-0.574 0.364,-0.569 0.337,-0.558C0.31,-0.547 0.286,-0.532 0.266,-0.512C0.246,-0.492 0.231,-0.468 0.22,-0.441C0.209,-0.413 0.203,-0.383 0.203,-0.35C0.203,-0.317 0.209,-0.287 0.22,-0.259C0.231,-0.232 0.246,-0.208 0.266,-0.188C0.286,-0.168 0.31,-0.153 0.337,-0.142C0.364,-0.131 0.394,-0.126 0.427,-0.126C0.462,-0.126 0.494,-0.132 0.523,-0.146C0.553,-0.16 0.579,-0.181 0.603,-0.209L0.707,-0.113C0.674,-0.072 0.633,-0.042 0.584,-0.02C0.535,0.001 0.479,0.012 0.418,0.012Z" style="fill:rgb(235,235,235);fill-rule:nonzero;"/>
            </g>
            <g transform="matrix(150,0,0,150,1154.2,457.378)">
                <path d="M0.228,-0.16L0.219,-0.347L0.554,-0.7L0.734,-0.7L0.432,-0.375L0.342,-0.279L0.228,-0.16ZM0.083,-0L0.083,-0.7L0.244,-0.7L0.244,-0L0.083,-0ZM0.562,-0L0.313,-0.305L0.419,-0.42L0.751,-0L0.562,-0Z" style="fill:rgb(235,235,235);fill-rule:nonzero;"/>
            </g>
            <g transform="matrix(150,0,0,150,1275.74,457.378)">
            </g>
            <g transform="matrix(150,0,0,150,1328.7,457.378)">
                <path d="M0.25,-0L0.25,-0.636L0.004,-0.636L0.004,-0.7L0.57,-0.7L0.57,-0.636L0.324,-0.636L0.324,-0L0.25,-0Z" style="fill:rgb(235,235,235);fill-rule:nonzero;"/>
            </g>
            <g transform="matrix(150,0,0,150,1425.31,457.378)">
                <path d="M0.114,-0L0.114,-0.7L0.376,-0.7C0.435,-0.7 0.486,-0.69 0.529,-0.671C0.572,-0.652 0.605,-0.625 0.628,-0.589C0.651,-0.553 0.662,-0.511 0.662,-0.46C0.662,-0.411 0.651,-0.368 0.628,-0.333C0.605,-0.297 0.572,-0.27 0.529,-0.251C0.486,-0.231 0.435,-0.222 0.376,-0.222L0.155,-0.222L0.188,-0.256L0.188,-0L0.114,-0ZM0.592,-0L0.412,-0.254L0.492,-0.254L0.673,-0L0.592,-0ZM0.188,-0.25L0.155,-0.285L0.374,-0.285C0.444,-0.285 0.497,-0.3 0.534,-0.331C0.57,-0.362 0.588,-0.405 0.588,-0.46C0.588,-0.516 0.57,-0.56 0.534,-0.59C0.497,-0.62 0.444,-0.636 0.374,-0.636L0.155,-0.636L0.188,-0.671L0.188,-0.25Z" style="fill:rgb(235,235,235);fill-rule:nonzero;"/>
            </g>
            <g transform="matrix(150,0,0,150,1544.32,457.378)">
                <path d="M0.002,-0L0.322,-0.7L0.395,-0.7L0.715,-0L0.637,-0L0.343,-0.657L0.373,-0.657L0.079,-0L0.002,-0ZM0.128,-0.187L0.15,-0.247L0.557,-0.247L0.58,-0.187L0.128,-0.187Z" style="fill:rgb(235,235,235);fill-rule:nonzero;"/>
            </g>
            <g transform="matrix(150,0,0,150,1662.44,457.378)">
                <path d="M0.114,-0L0.114,-0.7L0.399,-0.7C0.474,-0.7 0.539,-0.685 0.596,-0.655C0.652,-0.626 0.696,-0.584 0.727,-0.532C0.759,-0.48 0.774,-0.419 0.774,-0.35C0.774,-0.281 0.759,-0.22 0.727,-0.168C0.696,-0.116 0.652,-0.074 0.596,-0.045C0.539,-0.015 0.474,-0 0.399,-0L0.114,-0ZM0.188,-0.064L0.395,-0.064C0.457,-0.064 0.511,-0.076 0.557,-0.101C0.602,-0.125 0.638,-0.159 0.663,-0.202C0.688,-0.244 0.701,-0.294 0.701,-0.35C0.701,-0.406 0.688,-0.456 0.663,-0.499C0.638,-0.541 0.602,-0.575 0.557,-0.599C0.511,-0.624 0.457,-0.636 0.395,-0.636L0.188,-0.636L0.188,-0.064Z" style="fill:rgb(235,235,235);fill-rule:nonzero;"/>
            </g>
            <g transform="matrix(150,0,0,150,1796.84,457.378)">
                <rect x="0.114" y="-0.7" width="0.073" height="0.7" style="fill:rgb(235,235,235);fill-rule:nonzero;"/>
            </g>
            <g transform="matrix(150,0,0,150,1852.62,457.378)">
                <path d="M0.114,-0L0.114,-0.7L0.175,-0.7L0.658,-0.092L0.626,-0.092L0.626,-0.7L0.699,-0.7L0.699,-0L0.638,-0L0.156,-0.608L0.188,-0.608L0.188,-0L0.114,-0Z" style="fill:rgb(235,235,235);fill-rule:nonzero;"/>
            </g>
            <g transform="matrix(150,0,0,150,1985.09,457.378)">
                <path d="M0.421,0.006C0.368,0.006 0.319,-0.002 0.274,-0.02C0.229,-0.038 0.19,-0.063 0.157,-0.095C0.123,-0.127 0.098,-0.165 0.079,-0.208C0.061,-0.251 0.052,-0.299 0.052,-0.35C0.052,-0.401 0.061,-0.449 0.079,-0.492C0.098,-0.535 0.123,-0.573 0.157,-0.605C0.19,-0.637 0.23,-0.662 0.274,-0.68C0.319,-0.698 0.369,-0.706 0.422,-0.706C0.475,-0.706 0.524,-0.698 0.568,-0.681C0.613,-0.664 0.651,-0.639 0.682,-0.605L0.636,-0.558C0.607,-0.587 0.574,-0.608 0.539,-0.621C0.504,-0.634 0.466,-0.64 0.425,-0.64C0.382,-0.64 0.342,-0.633 0.306,-0.619C0.269,-0.604 0.237,-0.584 0.21,-0.557C0.183,-0.531 0.162,-0.501 0.148,-0.465C0.133,-0.43 0.125,-0.392 0.125,-0.35C0.125,-0.309 0.133,-0.27 0.148,-0.235C0.162,-0.2 0.183,-0.169 0.21,-0.143C0.237,-0.116 0.269,-0.096 0.305,-0.081C0.342,-0.067 0.381,-0.06 0.424,-0.06C0.464,-0.06 0.501,-0.066 0.537,-0.078C0.573,-0.09 0.606,-0.11 0.636,-0.139L0.678,-0.083C0.645,-0.053 0.606,-0.031 0.561,-0.016C0.516,-0.001 0.469,0.006 0.421,0.006ZM0.607,-0.092L0.607,-0.35L0.678,-0.35L0.678,-0.083L0.607,-0.092Z" style="fill:rgb(235,235,235);fill-rule:nonzero;"/>
            </g>
            <g transform="matrix(150,0,0,150,2101.02,457.378)">
            </g>
        </g>
        <g id="Layer_1-2" transform="matrix(0.177516,0,0,0.994194,389.09,400.867)">
            <circle cx="95.04" cy="95.04" r="91.04" style="fill:white;"/>
            <circle cx="95.09" cy="94.54" r="80.86" style="fill:white;"/>
            <path d="M176.09,93.88C176.347,121.953 161.992,148.229 138.23,163.18C130.93,167.885 121.432,167.598 114.43,162.46C112.69,161.168 111.205,159.564 110.05,157.73C107.445,153.571 105.261,149.162 103.53,144.57L120.62,144.57C120.727,142.843 120.16,141.139 119.04,139.82L116.22,137L136.5,137C136.5,137 137.5,126.18 131.81,119.14C126.12,112.1 122.23,112.62 116.47,105.93L113.59,102.12C113.59,102.12 113.67,81.95 110.45,70.77C108.13,62.7 101.14,51.49 97.45,45.89C96.923,45.09 96.028,44.608 95.07,44.608C94.112,44.608 93.217,45.09 92.69,45.89C88.96,51.49 81.97,62.7 79.69,70.77C76.4,82 76.48,102.12 76.48,102.12L73.6,105.93C67.84,112.62 63.94,112.11 58.27,119.14C52.6,126.17 53.58,137 53.58,137L73.85,137L71,139.82C69.88,141.139 69.313,142.843 69.42,144.57L86.56,144.57C84.811,149.161 82.614,153.569 80,157.73C78.841,159.564 77.353,161.168 75.61,162.46C68.665,167.602 59.212,167.918 51.94,163.25C28.352,148.437 13.993,122.466 13.993,94.612C13.993,50.149 50.581,13.562 95.043,13.562C139.23,13.562 175.691,49.696 176.09,93.88Z" style="fill:url(#_Linear1);fill-rule:nonzero;"/>
            <circle cx="95.04" cy="83.62" r="7.86" style="fill:url(#_Linear2);"/>
            <path d="M153.63,85.41C153.63,85.41 153,82 150.19,82C153.04,82 153.63,78.56 153.63,78.56C153.63,78.56 154.25,82 157.06,82C154.25,82 153.63,85.41 153.63,85.41Z" style="fill:white;fill-rule:nonzero;"/>
            <path d="M32.14,79.19C32.14,79.19 31.56,75.75 28.71,75.75C31.56,75.75 32.14,72.32 32.14,72.32C32.14,72.32 32.76,75.75 35.58,75.75C32.76,75.75 32.14,79.19 32.14,79.19Z" style="fill:white;fill-rule:nonzero;"/>
            <path d="M141.34,152.3C141.34,152.3 140.75,148.87 137.9,148.87C140.75,148.87 141.34,145.43 141.34,145.43C141.34,145.43 141.96,148.87 144.77,148.87C142,148.87 141.34,152.3 141.34,152.3Z" style="fill:white;fill-rule:nonzero;"/>
            <path d="M79.31,33.88C79.31,33.88 78.73,30.44 75.88,30.44C78.73,30.44 79.31,27.01 79.31,27.01C79.31,27.01 79.94,30.44 82.75,30.44C79.94,30.44 79.31,33.88 79.31,33.88Z" style="fill:white;fill-rule:nonzero;"/>
            <circle cx="51.31" cy="53.61" r="0.82" style="fill:white;"/>
            <circle cx="118.37" cy="46.43" r="0.82" style="fill:white;"/>
            <circle cx="147.76" cy="52.79" r="0.82" style="fill:white;"/>
            <circle cx="117.55" cy="24.32" r="0.82" style="fill:white;"/>
            <circle cx="34.76" cy="100.5" r="0.82" style="fill:white;"/>
            <circle cx="57.41" cy="152.3" r="0.82" style="fill:white;"/>
            <circle cx="54.79" cy="75.75" r="0.82" style="fill:white;"/>
            <circle cx="75.88" cy="44.79" r="0.82" style="fill:white;"/>
            <circle cx="130.23" cy="68.31" r="0.82" style="fill:white;"/>
            <circle cx="167.29" cy="99.69" r="0.82" style="fill:white;"/>
            <circle cx="130.23" cy="96.57" r="0.82" style="fill:white;"/>
            <circle cx="141.34" cy="102.14" r="0.82" style="fill:white;"/>
            <circle cx="162.43" cy="118.29" r="0.82" style="fill:white;"/>
            <circle cx="60.97" cy="99.69" r="0.82" style="fill:white;"/>
            <circle cx="36.4" cy="125.03" r="0.82" style="fill:white;"/>
            <circle cx="76.88" cy="149.68" r="0.82" style="fill:white;"/>
            <path d="M95,0C42.885,0 -0,42.885 0,95C0,147.115 42.885,190 95,190C147.115,190 190,147.115 190,95C189.918,42.916 147.084,0.082 95,0ZM95,182.29C47.147,182.274 7.78,142.893 7.78,95.04C7.78,47.176 47.166,7.79 95.03,7.79C142.879,7.79 182.258,47.151 182.28,95C182.247,142.87 142.87,182.252 95,182.29Z" style="fill:rgb(1,26,71);fill-rule:nonzero;"/>
        </g>
    </g>
    <defs>
        <linearGradient id="_Linear1" x1="0" y1="0" x2="1" y2="0" gradientUnits="userSpaceOnUse" gradientTransform="matrix(-45.68,-185.7,185.7,-45.68,129.95,236.56)"><stop offset="0" style="stop-color:rgb(47,118,246);stop-opacity:1"/><stop offset="1" style="stop-color:rgb(0,33,103);stop-opacity:1"/></linearGradient>
        <linearGradient id="_Linear2" x1="0" y1="0" x2="1" y2="0" gradientUnits="userSpaceOnUse" gradientTransform="matrix(-45.67,-185.7,185.7,-45.67,132.5,235.93)"><stop offset="0" style="stop-color:rgb(47,118,246);stop-opacity:1"/><stop offset="1" style="stop-color:rgb(0,33,103);stop-opacity:1"/></linearGradient>
    </defs>
</svg>
