<svg xmlns="http://www.w3.org/2000/svg"><symbol id="github" viewBox="0 0 24 24"><path d="m12.009,1C5.921,1,1,6.042,1,12.279c0,4.986,3.153,9.206,7.528,10.7.547.112.747-.243.747-.541,0-.261-.018-1.158-.018-2.092-3.062.672-3.7-1.345-3.7-1.345-.492-1.307-1.221-1.643-1.221-1.643-1.002-.691.073-.691.073-.691,1.112.075,1.695,1.158,1.695,1.158.984,1.718,2.57,1.232,3.208.934.091-.728.383-1.232.693-1.512-2.443-.261-5.012-1.232-5.012-5.565,0-1.232.437-2.241,1.13-3.025-.109-.28-.492-1.438.11-2.988,0,0,.93-.299,3.026,1.158.897-.247,1.823-.372,2.752-.374.93,0,1.877.131,2.752.374,2.096-1.457,3.026-1.158,3.026-1.158.602,1.55.219,2.708.109,2.988.711.784,1.13,1.793,1.13,3.025,0,4.332-2.57,5.285-5.031,5.565.401.355.747,1.027.747,2.091,0,1.512-.018,2.726-.018,3.1,0,.299.201.654.747.542,4.374-1.494,7.528-5.714,7.528-10.7.018-6.237-4.921-11.279-10.991-11.279Z"/></symbol></svg>